<svg width="1280" height="220" viewBox="0 0 1280 220" fill="none" xmlns="http://www.w3.org/2000/svg" role="img" aria-label="@teovilla/code-runner-sdk-node">
  <defs>
    <pattern id="grid" width="36" height="36" patternUnits="userSpaceOnUse">
      <path d="M36 0H0V36" fill="none" stroke="#22252B" stroke-width="1" stroke-opacity="0.35"/>
    </pattern>
  </defs>
  <rect x="1" y="1" width="1278" height="218" rx="14" fill="#0A0B0D"/>
  <rect x="1" y="1" width="1278" height="218" rx="14" fill="url(#grid)"/>
  <rect x="1.5" y="1.5" width="1277" height="217" rx="13.5" fill="none" stroke="#2E323A"/>

  <g transform="translate(64 58) scale(0.6)" fill="#F4F5F7">
    <path d="M55.5 0H77.5L58.5 32H36.5L55.5 0Z"/>
    <path d="M35.5 0H51.5L32.5 32H16.5L35.5 0Z" opacity="0.62"/>
    <path d="M19.5 0H31.5L12.5 32H0.5L19.5 0Z" opacity="0.4"/>
  </g>
  <g transform="translate(116 56)">
    <rect width="172" height="26" rx="6" fill="#15171C" stroke="#22252B"/>
    <text x="86" y="17" text-anchor="middle" font-family="'Geist Mono','SF Mono',SFMono-Regular,Menlo,Consolas,monospace" font-size="11.5" letter-spacing="0.6" fill="#A6AAB3">SERVER SDK · NODE ≥ 22</text>
  </g>

  <text x="64" y="132" font-family="'Geist','Inter',ui-sans-serif,system-ui,-apple-system,'Segoe UI',Roboto,sans-serif" font-size="38" font-weight="600" letter-spacing="-1.1" fill="#F4F5F7">code-runner-sdk-node</text>
  <text x="65" y="166" font-family="'Geist','Inter',ui-sans-serif,system-ui,-apple-system,'Segoe UI',Roboto,sans-serif" font-size="18" font-weight="500" letter-spacing="-0.1" fill="#A6AAB3">Typed gateway client and zero-dependency soketi channel-auth signing.</text>

  <!-- RIGHT artifact: mini terminal, achromatic chrome, iris running dot. -->
  <g transform="translate(992 46)">
    <rect width="224" height="128" rx="10" fill="#15171C" stroke="#22252B"/>
    <rect width="224" height="32" rx="10" fill="#0F1114"/>
    <rect y="20" width="224" height="12" fill="#0F1114"/>
    <line x1="0" y1="32" x2="224" y2="32" stroke="#22252B"/>
    <circle cx="18" cy="16" r="3.5" fill="#2E323A"/>
    <circle cx="33" cy="16" r="3.5" fill="#2E323A"/>
    <circle cx="48" cy="16" r="3.5" fill="#2E323A"/>
    <text x="206" y="20" text-anchor="end" font-family="'Geist Mono','SF Mono',SFMono-Regular,Menlo,Consolas,monospace" font-size="11" fill="#71757E">node</text>
    <g font-family="'Geist Mono','SF Mono',SFMono-Regular,Menlo,Consolas,monospace" font-size="13">
      <text x="18" y="66" xml:space="preserve"><tspan fill="#71757E">await </tspan><tspan fill="#F4F5F7">client</tspan><tspan fill="#A6AAB3">.execute()</tspan></text>
      <circle cx="22" cy="98" r="4.5" fill="#6D63FF"/>
      <text x="34" y="102" xml:space="preserve"><tspan fill="#F4F5F7">202 </tspan><tspan fill="#A6AAB3">· queued</tspan></text>
    </g>
  </g>
</svg>
